<svg width="28" height="28" viewBox="0 0 28 28" fill="none" xmlns="http://www.w3.org/2000/svg">
<g clip-path="url(#clip0_1_941)">
<g filter="url(#filter0_f_1_941)">
<circle cx="13.8416" cy="13.1367" r="13.5" fill="url(#paint0_linear_1_941)"/>
</g>
<path d="M13.323 0.657883C10.4376 0.823487 7.7335 1.94846 5.58129 3.87923C5.40694 4.03563 5.73333 4.69452 5.56643 4.86146C5.38014 5.04775 4.70316 4.74165 4.52995 4.93718C2.63235 7.07939 1.52691 9.75977 1.36285 12.618C1.34868 12.8654 1.83868 13.1141 1.83868 13.3638C1.83868 13.6136 1.34868 13.8623 1.36285 14.1096C1.52766 16.9815 2.64289 19.6738 4.55705 21.821C4.72191 22.0059 5.22767 22.2381 5.22767 22.2381C5.22767 22.2381 5.42683 22.7108 5.61182 22.8757C7.75905 24.7897 10.4513 25.9049 13.323 26.0697C13.5703 26.0839 14.0688 25.7799 14.0688 25.7799L14.566 13.8431L14.0773 0.863607C14.0773 0.863607 13.5703 0.643714 13.323 0.657883V0.657883Z" fill="#FDCB02"/>
<path d="M14.0688 1.12334V22.9958C14.0688 22.9958 14.5672 26.0838 14.8146 26.0696C17.6968 25.9042 20.3981 24.7815 22.5492 22.8547C22.726 22.6963 22.402 22.0352 22.5712 21.8661C22.7553 21.682 23.4301 21.9906 23.6013 21.7975C25.5028 19.6541 26.6105 16.9709 26.7747 14.1095C26.7889 13.8621 25.8018 13.6134 25.8018 13.3637C25.8018 13.1139 26.7889 12.8652 26.7747 12.6179C26.6099 9.74602 25.4947 7.05371 23.5805 4.90648C23.4157 4.72158 22.8312 4.58879 22.8312 4.58879C22.8312 4.58879 22.7108 4.01666 22.5258 3.85175C20.3785 1.93779 17.6863 0.82321 14.8145 0.658451C14.5938 0.645774 14.0688 1.12334 14.0688 1.12334V1.12334Z" fill="#FDAE02"/>
<path d="M8.59648 6.83698L5.58181 3.87988C5.4074 4.03629 5.23628 4.19752 5.06933 4.36446C4.883 4.5508 4.70397 4.7424 4.53076 4.93799L7.5419 7.89161L8.59648 6.83698Z" fill="#FDAE02"/>
<path d="M13.323 21.8486V26.0689C13.5704 26.0831 13.8189 26.0911 14.0687 26.0911H14.0688L14.5659 24.414L14.0688 21.8486H13.323Z" fill="#FDAE02"/>
<path d="M14.8145 21.8486H14.0688V26.091C14.3186 26.091 14.5671 26.083 14.8145 26.0688V21.8486Z" fill="#FD8C02"/>
<path d="M13.323 0.658942V4.87918H14.0688L14.5659 2.47382L14.0688 0.636719C14.0688 0.636719 13.5704 0.644723 13.323 0.658942V0.658942Z" fill="#FDAE02"/>
<path d="M14.8145 0.658942C14.5671 0.644723 14.3186 0.636719 14.0688 0.636719V4.87918H14.8145V0.658942Z" fill="#FD8C02"/>
<path d="M19.5413 19.8906L22.5488 22.854C22.7257 22.6956 22.8992 22.5323 23.0685 22.3631C23.2525 22.179 23.4294 21.9898 23.6007 21.7967L20.5959 18.8359L19.5413 19.8906Z" fill="#FD8C02"/>
<path d="M22.5537 14.1096H26.7739C26.7881 13.8623 26.7961 13.6137 26.7961 13.3639C26.7961 13.1141 26.7881 12.8656 26.7739 12.6182H22.5537V14.1096Z" fill="#FD8C02"/>
<path d="M5.58401 12.6182H1.36378C1.34956 12.8656 1.34155 13.1141 1.34155 13.3639C1.34155 13.6137 1.34956 13.8623 1.36378 14.1096H5.58401V12.6182Z" fill="#FDAE02"/>
<path d="M20.5959 7.89136L23.58 4.90721C23.4152 4.72227 23.2451 4.54086 23.0684 4.36417C22.8918 4.18752 22.7104 4.01745 22.5254 3.85254L19.5413 6.83664L20.5959 7.89136Z" fill="#FD8C02"/>
<path d="M7.54176 18.8359L4.55762 21.8201C4.72248 22.005 4.89255 22.1864 5.06924 22.3631C5.24588 22.5398 5.4273 22.7099 5.61229 22.8748L8.59644 19.8906L7.54176 18.8359Z" fill="#FDAE02"/>
<path d="M14.0689 4.13379C8.97917 4.13379 4.83838 8.27458 4.83838 13.3643C4.83838 18.4541 8.97917 22.5949 14.0689 22.5949H14.069L14.5661 13.7967L14.069 4.13379H14.0689Z" fill="#FFDF8E"/>
<path d="M23.2996 13.3644C23.2996 8.27463 19.1588 4.13384 14.0691 4.13379V22.5949C19.1588 22.5949 23.2996 18.4542 23.2996 13.3644V13.3644Z" fill="#FFD664"/>
<path d="M13.3232 8.02832V10.1495H14.069L14.5661 9.15657L14.069 8.02832H13.3232Z" fill="#FDAE02"/>
<path d="M14.0691 8.02832H14.8148V10.1495H14.0691V8.02832Z" fill="#FD8C02"/>
<path d="M12.2012 18.6984L12.4378 11.7392C11.6171 10.9126 10.3328 10.7286 9.2976 11.3363C8.12445 12.0249 7.68501 13.5158 8.29712 14.7306L10.2965 18.6984H12.2012Z" fill="#FDAE02"/>
<path d="M18.8404 11.3363C17.8051 10.7286 16.5207 10.9126 15.7002 11.7392L15.9908 18.6984H17.8413L19.8408 14.7305C20.4529 13.5158 20.0134 12.0248 18.8404 11.3363V11.3363Z" fill="#FD8C02"/>
<path d="M12.2012 18.6992H14.085L14.5661 14.1604L14.0689 9.4043C13.1886 9.4043 12.3593 9.79109 11.7935 10.4655C11.2277 11.1399 10.991 12.0239 11.1448 12.8947L12.2012 18.6992Z" fill="#FDCB02"/>
<path d="M15.9907 18.6992L16.9937 12.8908C17.1468 12.0239 16.9101 11.1399 16.3442 10.4655C15.7785 9.79109 14.9492 9.4043 14.0688 9.4043V18.6993H15.9907V18.6992Z" fill="#FDAE02"/>
</g>
<defs>
<filter id="filter0_f_1_941" x="-1.65845" y="-2.36328" width="31" height="31" filterUnits="userSpaceOnUse" color-interpolation-filters="sRGB">
<feFlood flood-opacity="0" result="BackgroundImageFix"/>
<feBlend mode="normal" in="SourceGraphic" in2="BackgroundImageFix" result="shape"/>
<feGaussianBlur stdDeviation="1" result="effect1_foregroundBlur_1_941"/>
</filter>
<linearGradient id="paint0_linear_1_941" x1="13.8416" y1="-0.363281" x2="13.8416" y2="26.6367" gradientUnits="userSpaceOnUse">
<stop stop-color="white" stop-opacity="0"/>
<stop offset="1" stop-color="#878176"/>
</linearGradient>
<clipPath id="clip0_1_941">
<rect width="28" height="28" fill="white"/>
</clipPath>
</defs>
</svg>
