<svg width="25" height="25" viewBox="0 0 25 25" fill="none" xmlns="http://www.w3.org/2000/svg">
<g clip-path="url(#clip0_1_10677)">
<path d="M19.0365 14.4518C17.3684 14.4518 16.0113 15.8089 16.0113 17.477C16.0113 19.1452 17.3684 20.5023 19.0365 20.5023C20.7049 20.5023 22.0617 19.1452 22.0617 17.477C22.0617 15.8089 20.7047 14.4518 19.0365 14.4518ZM19.0365 18.9897C18.2023 18.9897 17.5239 18.3112 17.5239 17.477C17.5239 16.6429 18.2023 15.9644 19.0365 15.9644C19.8707 15.9644 20.5491 16.6429 20.5491 17.477C20.5491 18.3113 19.8707 18.9897 19.0365 18.9897ZM8.70039 14.4518C7.03225 14.4518 5.67517 15.8089 5.67517 17.477C5.67517 19.1452 7.03225 20.5023 8.70039 20.5023C10.3685 20.5023 11.7256 19.1452 11.7256 17.477C11.7256 15.8089 10.3685 14.4518 8.70039 14.4518ZM8.70039 18.9897C7.8662 18.9897 7.18778 18.3112 7.18778 17.477C7.18778 16.6429 7.8662 15.9644 8.70039 15.9644C9.53434 15.9644 10.213 16.6429 10.213 17.477C10.213 18.3113 9.53458 18.9897 8.70039 18.9897ZM21.0737 5.79271C21.0107 5.66749 20.9142 5.56225 20.7948 5.48871C20.6755 5.41517 20.538 5.37622 20.3979 5.37622H16.4147V6.88883H19.9315L21.9909 10.985L23.3426 10.3053L21.0737 5.79271Z" fill="#1E1584"/>
<path d="M11.045 16.746H16.7677V18.2586H11.045V16.746ZM6.43151 16.746H3.80969C3.39194 16.746 3.05341 17.0846 3.05341 17.5023C3.05341 17.9201 3.39199 18.2586 3.80969 18.2586H6.43155C6.8493 18.2586 7.18783 17.92 7.18783 17.5023C7.18783 17.0846 6.84926 16.746 6.43151 16.746ZM24.7517 12.1225L23.2641 10.2065C23.1935 10.1154 23.1029 10.0417 22.9994 9.99099C22.8959 9.9403 22.7821 9.91398 22.6669 9.91404H17.171V4.61993C17.171 4.20218 16.8325 3.86365 16.4148 3.86365H3.80969C3.39194 3.86365 3.05341 4.20223 3.05341 4.61993C3.05341 5.03763 3.39199 5.37621 3.80969 5.37621H15.6584V10.6703C15.6584 11.0881 15.997 11.4266 16.4147 11.4266H22.2965L23.3979 12.8454V16.7459H21.3055C20.8877 16.7459 20.5492 17.0845 20.5492 17.5022C20.5492 17.92 20.8878 18.2585 21.3055 18.2585H24.1542C24.5719 18.2585 24.9105 17.9199 24.9105 17.5022V12.5863C24.9105 12.4184 24.8546 12.2551 24.7517 12.1225ZM6.38112 12.9141H2.9021C2.48435 12.9141 2.14582 13.2527 2.14582 13.6704C2.14582 14.0881 2.4844 14.4266 2.9021 14.4266H6.38107C6.79882 14.4266 7.13735 14.0881 7.13735 13.6704C7.1374 13.2527 6.79882 12.9141 6.38112 12.9141ZM8.1206 9.93926H1.6668C1.2491 9.93926 0.910522 10.2778 0.910522 10.6956C0.910522 11.1133 1.2491 11.4519 1.6668 11.4519H8.1206C8.53835 11.4519 8.87688 11.1133 8.87688 10.6956C8.87688 10.2779 8.53835 9.93926 8.1206 9.93926Z" fill="#1E1584"/>
<path d="M9.35595 6.96448H2.90216C2.48441 6.96448 2.14587 7.30306 2.14587 7.72076C2.14587 8.13851 2.48445 8.47704 2.90216 8.47704H9.35595C9.7737 8.47704 10.1122 8.13846 10.1122 7.72076C10.1123 7.30306 9.7737 6.96448 9.35595 6.96448Z" fill="#1E1584"/>
</g>
<defs>
<clipPath id="clip0_1_10677">
<rect width="24" height="24" fill="white" transform="translate(0.910522 0.182983)"/>
</clipPath>
</defs>
</svg>
