<svg width="23" height="23" viewBox="0 0 23 23" fill="none" xmlns="http://www.w3.org/2000/svg">
<path d="M0.910522 3.18286C0.910522 2.91764 1.01588 2.66329 1.20342 2.47575C1.39095 2.28822 1.64531 2.18286 1.91052 2.18286H11.9105C12.1757 2.18286 12.4301 2.28822 12.6176 2.47575C12.8052 2.66329 12.9105 2.91764 12.9105 3.18286C12.9105 3.44808 12.8052 3.70243 12.6176 3.88997C12.4301 4.0775 12.1757 4.18286 11.9105 4.18286H1.91052C1.64531 4.18286 1.39095 4.0775 1.20342 3.88997C1.01588 3.70243 0.910522 3.44808 0.910522 3.18286ZM21.9105 2.18286H16.9105V1.18286C16.9105 0.917645 16.8052 0.663291 16.6176 0.475754C16.4301 0.288218 16.1757 0.182861 15.9105 0.182861C15.6453 0.182861 15.391 0.288218 15.2034 0.475754C15.0159 0.663291 14.9105 0.917645 14.9105 1.18286V5.18286C14.9105 5.44808 15.0159 5.70243 15.2034 5.88997C15.391 6.0775 15.6453 6.18286 15.9105 6.18286C16.1757 6.18286 16.4301 6.0775 16.6176 5.88997C16.8052 5.70243 16.9105 5.44808 16.9105 5.18286V4.18286H21.9105C22.1757 4.18286 22.4301 4.0775 22.6176 3.88997C22.8052 3.70243 22.9105 3.44808 22.9105 3.18286C22.9105 2.91764 22.8052 2.66329 22.6176 2.47575C22.4301 2.28822 22.1757 2.18286 21.9105 2.18286ZM1.91052 12.1829H7.91052C8.17574 12.1829 8.43009 12.0775 8.61763 11.89C8.80517 11.7024 8.91052 11.4481 8.91052 11.1829C8.91052 10.9176 8.80517 10.6633 8.61763 10.4758C8.43009 10.2882 8.17574 10.1829 7.91052 10.1829H1.91052C1.64531 10.1829 1.39095 10.2882 1.20342 10.4758C1.01588 10.6633 0.910522 10.9176 0.910522 11.1829C0.910522 11.4481 1.01588 11.7024 1.20342 11.89C1.39095 12.0775 1.64531 12.1829 1.91052 12.1829ZM21.9105 10.1829H12.9105V9.18286C12.9105 8.91764 12.8052 8.66329 12.6176 8.47575C12.4301 8.28822 12.1757 8.18286 11.9105 8.18286C11.6453 8.18286 11.391 8.28822 11.2034 8.47575C11.0159 8.66329 10.9105 8.91764 10.9105 9.18286V13.1829C10.9105 13.4481 11.0159 13.7024 11.2034 13.89C11.391 14.0775 11.6453 14.1829 11.9105 14.1829C12.1757 14.1829 12.4301 14.0775 12.6176 13.89C12.8052 13.7024 12.9105 13.4481 12.9105 13.1829V12.1829H21.9105C22.1757 12.1829 22.4301 12.0775 22.6176 11.89C22.8052 11.7024 22.9105 11.4481 22.9105 11.1829C22.9105 10.9176 22.8052 10.6633 22.6176 10.4758C22.4301 10.2882 22.1757 10.1829 21.9105 10.1829ZM1.91052 20.1829H14.9105C15.1757 20.1829 15.4301 20.0775 15.6176 19.89C15.8052 19.7024 15.9105 19.4481 15.9105 19.1829C15.9105 18.9176 15.8052 18.6633 15.6176 18.4758C15.4301 18.2882 15.1757 18.1829 14.9105 18.1829H1.91052C1.64531 18.1829 1.39095 18.2882 1.20342 18.4758C1.01588 18.6633 0.910522 18.9176 0.910522 19.1829C0.910522 19.4481 1.01588 19.7024 1.20342 19.89C1.39095 20.0775 1.64531 20.1829 1.91052 20.1829ZM21.9105 18.1829H19.9105V17.1829C19.9105 16.9176 19.8052 16.6633 19.6176 16.4758C19.4301 16.2882 19.1757 16.1829 18.9105 16.1829C18.6453 16.1829 18.391 16.2882 18.2034 16.4758C18.0159 16.6633 17.9105 16.9176 17.9105 17.1829V21.1829C17.9105 21.4481 18.0159 21.7024 18.2034 21.89C18.391 22.0775 18.6453 22.1829 18.9105 22.1829C19.1757 22.1829 19.4301 22.0775 19.6176 21.89C19.8052 21.7024 19.9105 21.4481 19.9105 21.1829V20.1829H21.9105C22.1757 20.1829 22.4301 20.0775 22.6176 19.89C22.8052 19.7024 22.9105 19.4481 22.9105 19.1829C22.9105 18.9176 22.8052 18.6633 22.6176 18.4758C22.4301 18.2882 22.1757 18.1829 21.9105 18.1829Z" fill="#1E1584"/>
</svg>
