<svg width="31" height="40" viewBox="0 0 31 40" fill="none" xmlns="http://www.w3.org/2000/svg">
<path d="M2.66874 8.75661C3.77893 8.75661 4.67892 7.8468 4.67892 6.7245C4.67892 5.60219 3.77893 4.69238 2.66874 4.69238C1.55856 4.69238 0.658569 5.60219 0.658569 6.7245C0.658569 7.8468 1.55856 8.75661 2.66874 8.75661Z" fill="#FFD15B"/>
<path d="M28.6484 8.75661C29.7585 8.75661 30.6585 7.8468 30.6585 6.7245C30.6585 5.60219 29.7585 4.69238 28.6484 4.69238C27.5382 4.69238 26.6382 5.60219 26.6382 6.7245C26.6382 7.8468 27.5382 8.75661 28.6484 8.75661Z" fill="#FFD15B"/>
<path d="M2.66882 26.8684C2.66882 34.1208 8.48455 40 15.6587 40C22.8328 40 28.5762 34.1208 28.5762 26.8684V14.0984C28.5762 13.7303 28.281 13.4318 27.9167 13.4318C27.3464 13.4318 26.8729 13.465 26.3701 13.6593C24.6641 14.3184 23.4525 15.9885 23.4525 17.9447L23.3802 8.01425C23.3802 6.74511 22.562 4.95493 21.3781 4.71002C21.209 4.67501 21.0339 4.65666 20.8545 4.65666C19.4197 4.65666 18.2565 5.83251 18.2565 7.28298L18.1842 2.62624C18.1842 1.3571 17.366 0.298189 16.1821 0.0532797C16.0131 0.0183501 15.838 0 15.6587 0C14.2238 0 13.0607 1.17586 13.0607 2.62632V7.28306C13.0607 6.64845 12.7657 6.13956 12.3951 5.68563C12.0245 5.23163 11.5782 4.8326 10.9863 4.7101C10.8172 4.67509 10.6421 4.65674 10.4627 4.65674C9.02792 4.65674 7.86475 5.83259 7.86475 7.28306V17.9448C7.86475 16.9097 7.52552 16.686 6.95341 15.9185C6.61012 15.458 6.18299 14.3338 5.69487 14.0315C5.00589 13.6047 4.1955 13.3587 3.32827 13.3587C2.96411 13.3587 2.66882 13.6571 2.66882 14.0254V26.8684Z" fill="#B3DAFE"/>
<path d="M27.989 13.3584C27.4186 13.3584 26.8733 13.4658 26.3704 13.6601C26.4384 13.765 26.4783 13.8902 26.4783 14.025V26.8681C26.4783 33.751 21.2398 39.3963 14.5735 39.9537C14.9314 39.9837 15.293 39.9997 15.6585 39.9997C22.8326 39.9997 28.6484 34.1205 28.6484 26.8681V14.025C28.6484 13.6568 28.3532 13.3584 27.989 13.3584Z" fill="#67B2F1"/>
<path d="M21.7992 29.79C21.7992 30.7299 21.5926 31.6211 21.2227 32.4196C21.1307 32.6181 20.949 32.7304 20.8376 32.9168C20.7428 33.0751 20.721 33.3093 20.6132 33.458C19.6122 34.8374 18.061 35.7834 16.2865 35.9656C16.0801 35.9867 15.8706 35.8366 15.6587 35.8366C15.4621 35.8366 15.2678 35.9883 15.0759 35.97C13.2878 35.7999 11.7227 34.8546 10.7129 33.47C10.6094 33.3282 10.5914 33.1012 10.4999 32.9504C10.3832 32.7579 10.1968 32.6389 10.1009 32.4332C9.72705 31.6313 9.51807 30.7352 9.51807 29.79C9.51807 28.8446 9.72705 27.9487 10.1009 27.1467C10.184 26.9686 10.3547 26.8756 10.4536 26.7072C10.5582 26.529 10.5918 26.276 10.713 26.1099C11.7228 24.7253 13.2879 23.7801 15.076 23.6099C15.2678 23.5917 15.4622 23.7433 15.6588 23.7433C15.8652 23.7433 16.0692 23.5926 16.2704 23.6127C18.0517 23.7908 19.6092 24.7383 20.6132 26.122C20.7291 26.2816 20.7579 26.5275 20.8585 26.6982C20.9619 26.8737 21.1366 26.9743 21.2228 27.1604C21.5926 27.9587 21.7992 28.8499 21.7992 29.79Z" fill="#E9F6FE"/>
<path d="M22.3674 21.0224C22.9667 21.0224 23.4525 20.5313 23.4525 19.9255V17.9439V17.9442V7.28264C23.4525 5.97955 22.5135 4.89874 21.2823 4.69238V19.9255C21.2823 20.5313 21.7682 21.0224 22.3674 21.0224Z" fill="#67B2F1"/>
<path d="M6.77964 21.0223C7.3789 21.0223 7.8647 20.5312 7.8647 19.9254V17.9442C7.8647 16.2882 6.99611 14.8374 5.69458 14.0312V19.9254C5.69458 20.5313 6.18039 21.0223 6.77964 21.0223Z" fill="#67B2F1"/>
<path d="M17.1715 21.0229C17.7707 21.0229 18.2565 20.5317 18.2565 19.926V7.28314V2.62639C18.2565 1.3233 17.3176 0.242491 16.0864 0.0361328V19.926C16.0864 20.5318 16.5722 21.0229 17.1715 21.0229Z" fill="#67B2F1"/>
<path d="M11.9757 21.0224C12.5749 21.0224 13.0607 20.5313 13.0607 19.9255V7.28264C13.0607 5.97955 12.1218 4.89874 10.8906 4.69238V19.9255C10.8906 20.5313 11.3764 21.0224 11.9757 21.0224Z" fill="#67B2F1"/>
<path d="M21.2216 32.4198L16.8425 29.7907L21.2216 27.1615C21.0515 26.7944 20.8472 26.4469 20.6123 26.1232L16.2702 28.7301V23.6138C16.069 23.5937 15.8651 23.583 15.6586 23.583C15.4621 23.583 15.2679 23.5933 15.076 23.6116V28.7301L10.7136 26.1111C10.478 26.4342 10.2728 26.7812 10.1019 27.1479L14.5037 29.7907L10.1018 32.4335C10.2727 32.8002 10.4779 33.1472 10.7136 33.4703L15.0759 30.8512V35.9697C15.2678 35.988 15.462 35.9983 15.6585 35.9983C15.865 35.9983 16.0689 35.9876 16.2701 35.9675V30.8512L20.6122 33.458C20.8472 33.1344 21.0514 32.787 21.2216 32.4198Z" fill="#FFE177"/>
</svg>
