<svg width="22" height="25" viewBox="0 0 22 25" fill="none" xmlns="http://www.w3.org/2000/svg">
<g clip-path="url(#clip0_1_3986)">
<path d="M11.4122 3.54102C13.5518 3.54102 15.4839 4.37223 16.8854 5.7188C18.2868 7.06537 19.1577 8.9273 19.1577 10.9776C19.1577 13.5489 18.333 14.4632 17.416 15.4828C16.6201 16.3639 15.7492 17.3337 15.357 19.7497C15.334 19.9104 15.1898 20.0268 15.0225 20.0268H7.80179C7.623 20.0268 7.47305 19.8883 7.46151 19.722C7.06933 17.3281 6.20423 16.3639 5.4141 15.4828C4.49133 14.4632 3.67236 13.5489 3.67236 10.9776C3.67236 8.9273 4.53747 7.06537 5.93893 5.7188C7.3404 4.37223 9.27246 3.54102 11.4122 3.54102Z" fill="#FFA721"/>
<path d="M7.80756 21.3951C7.61724 21.3951 7.46729 21.251 7.46729 21.0682C7.46729 20.8853 7.61724 20.7412 7.80756 20.7412H15.0225C15.2128 20.7412 15.3628 20.8853 15.3628 21.0682C15.3628 21.251 15.2128 21.3951 15.0225 21.3951H7.80756ZM8.93796 22.7915C8.74764 22.7915 8.59192 22.6419 8.59192 22.4591C8.59192 22.2817 8.74764 22.1321 8.93796 22.1321H13.8921C14.0767 22.1321 14.2324 22.2817 14.2324 22.4591C14.2324 22.6419 14.0767 22.7915 13.8921 22.7915H8.93796ZM9.90688 24.1824C9.71655 24.1824 9.5666 24.0328 9.5666 23.8555C9.5666 23.6726 9.71655 23.523 9.90688 23.523H12.9174C13.1078 23.523 13.2577 23.6726 13.2577 23.8555C13.2577 24.0328 13.1078 24.1824 12.9174 24.1824H9.90688Z" fill="#BFC9D1"/>
<path d="M11.0719 0.509562C11.0719 0.332236 11.2218 0.182617 11.4121 0.182617C11.6025 0.182617 11.7524 0.332236 11.7524 0.509562V2.48786C11.7524 2.67073 11.6025 2.82035 11.4121 2.82035C11.2218 2.82035 11.0719 2.67073 11.0719 2.48786V0.509562ZM16.9834 1.86168C17.0757 1.70651 17.2833 1.6511 17.4448 1.73976C17.612 1.83397 17.664 2.03346 17.5717 2.18862L16.5451 3.90093C16.447 4.05609 16.2394 4.1115 16.0779 4.02284C15.9164 3.93418 15.8588 3.73468 15.951 3.57398L16.9834 1.86168ZM21.3954 5.86814C21.5627 5.77948 21.7703 5.83489 21.8626 5.99005C21.9606 6.14521 21.903 6.3447 21.7415 6.43891L19.9536 7.42529C19.7921 7.51949 19.5845 7.46408 19.4864 7.30892C19.3942 7.14821 19.4518 6.94872 19.6133 6.86006L21.3954 5.86814ZM5.25261 2.18308C5.15456 2.02238 5.21224 1.82288 5.37372 1.73422C5.54098 1.64556 5.7486 1.69543 5.84088 1.85059L6.87324 3.56844C6.96551 3.7236 6.90784 3.92309 6.74635 4.0173C6.58487 4.10596 6.37724 4.05055 6.2792 3.89539L5.25261 2.18308ZM1.08281 6.42228C0.91556 6.33362 0.863654 6.13413 0.955931 5.97897C1.04821 5.81827 1.25583 5.76839 1.41732 5.85706L3.2052 6.84898C3.36668 6.93764 3.42436 7.13713 3.32631 7.29229C3.23404 7.44745 3.02641 7.50287 2.86492 7.4142L1.08281 6.42228Z" fill="#E6961E"/>
<path d="M8.07296 12.5951L11.9832 6.08388C12.0409 5.98413 12.1562 5.91763 12.2831 5.92317C12.4735 5.92871 12.6234 6.07833 12.6176 6.25566L12.5081 10.3175L14.4171 10.0626C14.4863 10.0571 14.5612 10.0682 14.6304 10.107C14.7919 10.1956 14.8496 10.3951 14.7573 10.5503L10.6106 17.4549C10.5472 17.5768 10.4087 17.6544 10.2588 17.6378C10.0685 17.6212 9.93582 17.4549 9.95889 17.2776L10.5414 12.5397L8.45361 13.0772C8.3671 13.0938 8.27482 13.0883 8.19408 13.0439C8.03259 12.9497 7.97492 12.7502 8.07296 12.5951Z" fill="#FFE8BC"/>
</g>
<defs>
<clipPath id="clip0_1_3986">
<rect width="21" height="24" fill="white" transform="translate(0.910645 0.182617)"/>
</clipPath>
</defs>
</svg>
