<svg width="20" height="20" viewBox="0 0 20 20" fill="none" xmlns="http://www.w3.org/2000/svg">
<path d="M11.6733 10.3574L19.0715 2.95892C19.553 2.47768 19.553 1.69959 19.0715 1.21835C18.5903 0.737112 17.8122 0.737112 17.331 1.21835L9.93251 8.6168L2.53429 1.21835C2.05282 0.737112 1.27495 0.737112 0.793715 1.21835C0.312251 1.69959 0.312251 2.47768 0.793715 2.95892L8.19194 10.3574L0.793715 17.7558C0.312251 18.2371 0.312251 19.0152 0.793715 19.4964C1.03355 19.7364 1.34889 19.857 1.664 19.857C1.97912 19.857 2.29423 19.7364 2.53429 19.4964L9.93251 12.0979L17.331 19.4964C17.571 19.7364 17.8861 19.857 18.2012 19.857C18.5164 19.857 18.8315 19.7364 19.0715 19.4964C19.553 19.0152 19.553 18.2371 19.0715 17.7558L11.6733 10.3574Z" fill="white"/>
</svg>
