<svg width="100" height="60" viewBox="0 0 100 60" fill="none" xmlns="http://www.w3.org/2000/svg">
<path fill-rule="evenodd" clip-rule="evenodd" d="M38.216 31.7866L33.3983 35.6417C33.3335 35.545 33.2957 35.4287 33.2955 35.3036L33.2497 11.9594C33.2485 11.3395 32.4312 11.1155 32.1141 11.6482L20.4429 31.254C20.3328 31.439 20.1334 31.5523 19.9181 31.5523H18.2512C18.0366 31.5523 17.8378 31.4397 17.7274 31.2556L6.05985 11.7943C5.74127 11.2629 4.92524 11.4888 4.92524 12.1083V35.3024C4.92524 35.6397 4.65179 35.9132 4.31447 35.9132H0.610769C0.273451 35.9132 0 35.6397 0 35.3024V0.610769C0 0.273451 0.273451 0 0.610769 0H3.85923C4.07481 0 4.27443 0.113654 4.38446 0.299046L18.659 24.3508C18.8965 24.7509 19.4763 24.7491 19.7114 24.3476L33.7867 0.302221C33.8963 0.115033 34.0969 0 34.3138 0H37.5607C37.8977 0 38.171 0.272919 38.1715 0.609896L38.216 31.7866ZM51.5489 21.118L46.4184 25.2233V0.610769C46.4184 0.273451 46.6919 0 47.0292 0H50.9381C51.2754 0 51.5489 0.27345 51.5489 0.610769V21.118Z" fill="#7265FB"/>
<path fill-rule="evenodd" clip-rule="evenodd" d="M33.5923 37.7457V57.9001C33.5923 58.2374 33.8657 58.5108 34.2031 58.5108H50.728C55.2086 58.5108 58.6118 57.6729 60.9376 55.9969C63.2976 54.321 64.4776 51.9268 64.4776 48.8143C64.4776 46.4885 63.8791 44.5731 62.682 43.0682C61.7909 41.9225 60.6535 41.0422 59.2698 40.4271C58.7564 40.199 58.6791 39.3906 59.1306 39.0565C59.9718 38.434 60.6767 37.6677 61.2454 36.7577C62.1347 35.3896 62.5794 33.7649 62.5794 31.8838C62.5794 28.9765 61.4507 26.702 59.1933 25.0603C57.4766 23.7926 55.1991 23.0143 52.3607 22.7255L47.3278 26.7533H49.2402C51.8738 26.7533 53.8918 27.2493 55.2941 28.2412C56.7306 29.1988 57.4489 30.6183 57.4489 32.4994C57.4489 34.3806 56.7306 35.8171 55.2941 36.809C53.8918 37.7667 51.8738 38.2455 49.2402 38.2455H39.3335C38.9962 38.2455 38.7227 37.9721 38.7227 37.6348V33.6399L33.5923 37.7457ZM57.0898 52.9187C55.619 53.8763 53.43 54.3552 50.5228 54.3552H39.3335C38.9962 54.3552 38.7227 54.0817 38.7227 53.7444V43.012C38.7227 42.6747 38.9962 42.4012 39.3335 42.4012H50.5228C56.3715 42.4012 59.2959 44.4021 59.2959 48.4039C59.2959 50.456 58.5605 51.961 57.0898 52.9187ZM73.6294 54.8169C76.2972 57.5532 80.0254 58.9213 84.8138 58.9213C89.6022 58.9213 93.3303 57.5703 95.9982 54.8682C98.666 52.132 99.9999 48.1815 99.9999 43.0169V23.2084C99.9999 22.8711 99.7265 22.5977 99.3892 22.5977H95.6342C95.2968 22.5977 95.0234 22.8711 95.0234 23.2084V42.8117C95.0234 46.7108 94.1512 49.6181 92.4069 51.5334C90.6625 53.4146 88.1486 54.3552 84.8651 54.3552C78.1271 54.3552 74.7581 50.5073 74.7581 42.8117V23.2084C74.7581 22.8711 74.4846 22.5977 74.1473 22.5977H70.2384C69.9011 22.5977 69.6276 22.8711 69.6276 23.2084V43.0169C69.6276 48.1473 70.9616 52.0807 73.6294 54.8169Z" fill="#26E27C"/>
</svg>
