<svg width="15" height="14" viewBox="0 0 15 14" fill="none" xmlns="http://www.w3.org/2000/svg">
<path d="M14.5861 0.425682C14.5146 0.126203 14.1855 -0.0775724 13.887 0.0283476C13.887 0.0283476 0.95866 4.59043 0.956509 4.59204C0.758075 4.6657 0.612341 4.85496 0.601586 5.07164C0.591906 5.27972 0.720431 5.4964 0.910262 5.58457L5.9179 7.9218L8.36203 5.47812C8.84602 4.99422 9.61878 5.74265 9.12243 6.23837L6.6783 8.68206L9.01703 13.6915C9.11221 13.8743 9.29828 13.9904 9.50263 13.9996C9.72472 14.0098 9.93015 13.8399 10.0097 13.6409L14.5727 0.714408C14.6052 0.621544 14.6099 0.521171 14.5861 0.425682Z" fill="white"/>
</svg>
