<svg width="25" height="25" viewBox="0 0 25 25" fill="none" xmlns="http://www.w3.org/2000/svg">
<path d="M21.4593 14.5503C21.1841 14.5503 20.9611 14.7743 20.9611 15.0509V19.4958C20.9602 20.3249 20.2918 20.9968 19.4668 20.9976H5.49052C4.66551 20.9968 3.99721 20.3249 3.99621 19.4958V6.45032C3.99721 5.62136 4.66556 4.94949 5.49052 4.94849H9.91319C10.1883 4.94849 10.4113 4.72437 10.4113 4.44788C10.4113 4.17154 10.1883 3.94727 9.91319 3.94727H5.49052C4.11565 3.94882 3.00154 5.06854 3 6.45032V19.496C3.00154 20.8777 4.11565 21.9974 5.49052 21.999H19.4668C20.8417 21.9974 21.9558 20.8777 21.9574 19.496V15.0509C21.9574 14.7743 21.7344 14.5503 21.4593 14.5503Z" fill="#1E1584"/>
<path d="M21.76 2.65885C20.8846 1.77908 19.4654 1.77908 18.5901 2.65885L9.70348 11.5901C9.64266 11.6512 9.59862 11.7272 9.57567 11.8105L8.40707 16.0507C8.38348 16.136 8.38287 16.2262 8.4053 16.3119C8.42772 16.3976 8.47238 16.4757 8.53471 16.5384C8.59703 16.601 8.6748 16.646 8.76005 16.6685C8.8453 16.6911 8.93498 16.6905 9.01993 16.6668L13.2389 15.4921C13.3218 15.4691 13.3973 15.4248 13.4581 15.3637L22.3444 6.43227C23.2185 5.55184 23.2185 4.1267 22.3444 3.24632L21.76 2.65885ZM10.7888 11.9155L18.0618 4.60578L20.4073 6.96317L13.1342 14.2729L10.7888 11.9155ZM10.3203 12.8604L12.1942 14.744L9.60212 15.4658L10.3203 12.8604ZM21.6402 5.72435L21.1119 6.2552L18.7661 3.89762L19.2946 3.36672C19.7808 2.87802 20.5692 2.87802 21.0554 3.36672L21.6402 3.95414C22.1256 4.44344 22.1256 5.23525 21.6402 5.72435Z" fill="#1E1584"/>
</svg>
