<svg width="25" height="24" viewBox="0 0 25 24" fill="none" xmlns="http://www.w3.org/2000/svg">
<path fill-rule="evenodd" clip-rule="evenodd" d="M3.34155 6.5C3.34155 3.87479 3.36966 3 6.84155 3C10.3134 3 10.3416 3.87479 10.3416 6.5C10.3416 9.12521 10.3526 10 6.84155 10C3.33048 10 3.34155 9.12521 3.34155 6.5Z" stroke="#524E7D" stroke-width="1.58537" stroke-linecap="round" stroke-linejoin="round"/>
<path fill-rule="evenodd" clip-rule="evenodd" d="M14.3416 6.5C14.3416 3.87479 14.3697 3 17.8416 3C21.3134 3 21.3416 3.87479 21.3416 6.5C21.3416 9.12521 21.3526 10 17.8416 10C14.3305 10 14.3416 9.12521 14.3416 6.5Z" stroke="#524E7D" stroke-width="1.58537" stroke-linecap="round" stroke-linejoin="round"/>
<path fill-rule="evenodd" clip-rule="evenodd" d="M3.34155 17.5C3.34155 14.8748 3.36966 14 6.84155 14C10.3134 14 10.3416 14.8748 10.3416 17.5C10.3416 20.1252 10.3526 21 6.84155 21C3.33048 21 3.34155 20.1252 3.34155 17.5Z" stroke="#524E7D" stroke-width="1.58537" stroke-linecap="round" stroke-linejoin="round"/>
<path fill-rule="evenodd" clip-rule="evenodd" d="M14.3416 17.5C14.3416 14.8748 14.3697 14 17.8416 14C21.3134 14 21.3416 14.8748 21.3416 17.5C21.3416 20.1252 21.3526 21 17.8416 21C14.3305 21 14.3416 20.1252 14.3416 17.5Z" stroke="#524E7D" stroke-width="1.58537" stroke-linecap="round" stroke-linejoin="round"/>
</svg>
