<svg width="25" height="24" viewBox="0 0 25 24" fill="none" xmlns="http://www.w3.org/2000/svg">
<path d="M12.4613 12.7805C12.3913 12.7705 12.3013 12.7705 12.2213 12.7805C10.4613 12.7205 9.06128 11.2805 9.06128 9.51047C9.06128 7.70047 10.5213 6.23047 12.3413 6.23047C14.1513 6.23047 15.6213 7.70047 15.6213 9.51047C15.6113 11.2805 14.2213 12.7205 12.4613 12.7805Z" stroke="#524E7D" stroke-width="1.5" stroke-linecap="round" stroke-linejoin="round"/>
<path d="M19.0816 19.3796C17.3016 21.0096 14.9416 21.9996 12.3416 21.9996C9.74156 21.9996 7.38156 21.0096 5.60156 19.3796C5.70156 18.4396 6.30156 17.5196 7.37156 16.7996C10.1116 14.9796 14.5916 14.9796 17.3116 16.7996C18.3816 17.5196 18.9816 18.4396 19.0816 19.3796Z" stroke="#524E7D" stroke-width="1.5" stroke-linecap="round" stroke-linejoin="round"/>
<path d="M12.3416 22C17.8644 22 22.3416 17.5228 22.3416 12C22.3416 6.47715 17.8644 2 12.3416 2C6.81871 2 2.34155 6.47715 2.34155 12C2.34155 17.5228 6.81871 22 12.3416 22Z" stroke="#524E7D" stroke-width="1.5" stroke-linecap="round" stroke-linejoin="round"/>
</svg>
