<svg width="25" height="24" viewBox="0 0 25 24" fill="none" xmlns="http://www.w3.org/2000/svg">
<path d="M3.34155 22H21.3416" stroke="#524E7D" stroke-width="1.5" stroke-linecap="round" stroke-linejoin="round"/>
<path d="M5.94153 8.37988H4.34155C3.79155 8.37988 3.34155 8.82988 3.34155 9.37988V17.9999C3.34155 18.5499 3.79155 18.9999 4.34155 18.9999H5.94153C6.49153 18.9999 6.94153 18.5499 6.94153 17.9999V9.37988C6.94153 8.82988 6.49153 8.37988 5.94153 8.37988Z" stroke="#524E7D" stroke-width="1.5" stroke-linecap="round" stroke-linejoin="round"/>
<path d="M13.1407 5.18945H11.5408C10.9908 5.18945 10.5408 5.63945 10.5408 6.18945V17.9995C10.5408 18.5495 10.9908 18.9995 11.5408 18.9995H13.1407C13.6907 18.9995 14.1407 18.5495 14.1407 17.9995V6.18945C14.1407 5.63945 13.6907 5.18945 13.1407 5.18945Z" stroke="#524E7D" stroke-width="1.5" stroke-linecap="round" stroke-linejoin="round"/>
<path d="M20.3419 2H18.7419C18.1919 2 17.7419 2.45 17.7419 3V18C17.7419 18.55 18.1919 19 18.7419 19H20.3419C20.8919 19 21.3419 18.55 21.3419 18V3C21.3419 2.45 20.8919 2 20.3419 2Z" stroke="#524E7D" stroke-width="1.5" stroke-linecap="round" stroke-linejoin="round"/>
</svg>
