<svg width="62" height="67" viewBox="0 0 62 67" fill="none" xmlns="http://www.w3.org/2000/svg">
<path d="M61.1008 12.4533C60.2415 31.5999 57.9963 42.7687 48.3354 53.0576C31.0001 52.4235 19.6731 36.71 19.6731 21.1808C19.6731 14.036 23.7524 6.1994 30.2367 0.109282C31.0248 -0.120617 31.8937 0.0120628 32.5874 0.508782C40.5681 6.22384 48.6625 8.67834 58.6162 9.60325C60.0719 9.73885 61.1664 10.9921 61.1008 12.4533Z" fill="#F9EE80"/>
<path d="M48.3354 53.0577C44.4113 57.2376 39.2628 61.2711 32.4861 65.6356C31.5817 66.2185 30.4187 66.2185 29.5144 65.6356C6.05637 50.5279 2.10773 39.3798 0.89953 12.4534C0.83392 10.992 1.92843 9.73881 3.38419 9.60334C13.338 8.67844 21.4322 6.22393 29.413 0.508875C29.6675 0.326922 29.9467 0.192781 30.2367 0.109375C26.6083 5.68205 24.5012 12.3344 24.5012 19.4791C24.5011 35.0084 34.4577 48.2129 48.3354 53.0577Z" fill="#F9D171"/>
<path d="M55.472 15.4069C54.8673 26.1186 53.6578 34.2814 50.255 41.0048C48.5475 44.3761 46.2093 47.5216 42.9939 50.6794C27.9763 48.8446 19.6731 36.3023 19.6731 22.8486C19.6731 19.1914 23.4051 12.3619 26.0788 8.97224C27.6276 8.16913 29.1381 7.2838 30.6253 6.31108C30.8538 6.16193 31.1466 6.16193 31.3751 6.31108C38.2736 10.8234 45.7043 13.475 54.8754 14.6901C55.2313 14.7364 55.4926 15.0484 55.472 15.4069Z" fill="#FD7A6E"/>
<path d="M42.994 50.6798C39.9662 53.6516 36.1625 56.6328 31.3793 59.8194C31.1509 59.9713 30.8498 59.9713 30.6213 59.8194C20.7552 53.2465 15.0593 47.5492 11.7455 41.0052C8.3427 34.2818 7.13318 26.119 6.52848 15.4073C6.50789 15.0488 6.76927 14.7369 7.12507 14.6904C14.3191 13.7366 20.4432 11.9005 26.0789 8.97266C25.0541 12.2934 24.5013 15.8219 24.5013 19.4792C24.5012 32.9327 31.9731 44.6405 42.994 50.6798Z" fill="#FB695B"/>
<path d="M45.8848 34.337L35.2608 44.9611C26.3795 39.9692 21.1354 31.8372 24.508 20.1404L28.0982 16.5502C29.7003 14.9481 32.3 14.9481 33.9021 16.5502L45.8848 28.533C47.4871 30.1352 47.4871 32.7348 45.8848 34.337Z" fill="#F9EE80"/>
<path d="M35.2607 44.9612L33.9021 46.3198C32.2999 47.9219 29.7003 47.9219 28.0981 46.3198L16.1154 34.3371C14.5133 32.735 14.5133 30.1353 16.1154 28.5332L24.508 20.1406C24.6845 29.8698 28.7699 38.6442 35.2607 44.9612Z" fill="#F9D171"/>
<path d="M24.466 32.6777C23.8993 32.6777 23.4399 32.2183 23.4399 31.6516C23.4399 31.1789 23.0554 30.7944 22.5827 30.7944C22.1101 30.7944 21.7256 31.1789 21.7256 31.6516C21.7256 32.2183 21.2662 32.6777 20.6994 32.6777C20.1327 32.6777 19.6733 32.2183 19.6733 31.6516C19.6733 30.0473 20.9785 28.7422 22.5829 28.7422C24.1871 28.7422 25.4924 30.0473 25.4924 31.6516C25.4923 32.2182 25.0327 32.6777 24.466 32.6777Z" fill="#666667"/>
<path d="M41.3012 32.6777C40.7345 32.6777 40.2751 32.2183 40.2751 31.6516C40.2751 31.1789 39.8906 30.7944 39.4179 30.7944C38.9453 30.7944 38.5608 31.1789 38.5608 31.6516C38.5608 32.2183 38.1014 32.6777 37.5347 32.6777C36.9679 32.6777 36.5085 32.2183 36.5085 31.6516C36.5085 30.0473 37.8137 28.7422 39.4181 28.7422C41.0224 28.7422 42.3276 30.0473 42.3276 31.6516C42.3273 32.2182 41.8679 32.6777 41.3012 32.6777Z" fill="#666667"/>
<path d="M31.0002 35.7886C29.938 35.7886 28.9278 35.3286 28.2288 34.5265C27.8566 34.0993 27.9011 33.451 28.3282 33.0787C28.7554 32.7066 29.4036 32.7508 29.776 33.1781C30.085 33.5328 30.5313 33.7363 31.0001 33.7363C31.4689 33.7363 31.9151 33.5328 32.2242 33.1781C32.5966 32.7508 33.2448 32.7065 33.672 33.0787C34.0993 33.4511 34.1438 34.0994 33.7715 34.5265C33.0726 35.3286 32.0625 35.7886 31.0002 35.7886Z" fill="#666667"/>
</svg>
