<svg width="68" height="68" viewBox="0 0 68 68" fill="none" xmlns="http://www.w3.org/2000/svg">
<g clip-path="url(#clip0_1_15318)">
<path d="M67.7324 35.0305L65.0922 39.7701C64.9565 40.0138 64.9008 40.294 64.9334 40.5711L65.565 45.9562C65.6507 46.6868 65.3512 47.4096 64.7737 47.8654L60.518 51.2248C60.2987 51.3978 60.1396 51.6357 60.0634 51.9044L58.5811 57.1223C58.3805 57.8285 57.8286 58.3803 57.1225 58.5808L51.9046 60.063C51.6359 60.1394 51.398 60.2985 51.225 60.5176L47.8656 64.7734C47.4098 65.3508 46.6871 65.6503 45.9565 65.5647L40.5714 64.933C40.2944 64.9005 40.0142 64.9561 39.7704 65.0918L35.0309 67.732C34.3901 68.089 33.6103 68.089 32.9695 67.732L28.23 65.0918C27.9863 64.9561 27.706 64.9005 27.429 64.933L22.0438 65.5647C21.3132 65.6503 20.5905 65.3508 20.1347 64.7734L16.7753 60.5175C16.6022 60.2982 16.3644 60.1391 16.0957 60.0629L10.8778 58.5808C10.1716 58.3803 9.61975 57.8283 9.41921 57.1223L7.93702 51.9044C7.86065 51.6357 7.70154 51.3978 7.4824 51.2248L3.22669 47.8654C2.64922 47.4096 2.34973 46.6868 2.43539 45.9562L3.06705 40.5712C3.09959 40.2942 3.04394 40.0139 2.90821 39.7702L0.267895 35.0305C-0.0889727 34.3897 -0.0889727 33.61 0.267895 32.9691L2.90807 28.2296C3.04381 27.9859 3.09946 27.7057 3.06692 27.4286L2.43526 22.0435C2.3496 21.3129 2.64909 20.5901 3.22656 20.1343L7.48227 16.7749C7.70154 16.6019 7.86065 16.364 7.93689 16.0953L9.41921 10.8775C9.61975 10.1713 10.1717 9.61951 10.8778 9.41896L16.0957 7.93678C16.3644 7.86041 16.6022 7.7013 16.7753 7.48216L20.1347 3.22645C20.5905 2.64898 21.3132 2.34949 22.0438 2.43515L27.4288 3.06681C27.7059 3.09935 27.9861 3.0437 28.2298 2.90796L32.9695 0.26765C33.6103 -0.0892168 34.3901 -0.0892168 35.0309 0.26765L39.7704 2.90783C40.0142 3.04357 40.2944 3.09921 40.5714 3.06667L45.9566 2.43502C46.6872 2.34935 47.41 2.64885 47.8658 3.22631L51.2251 7.48203C51.3982 7.7013 51.636 7.86041 51.9047 7.93664L57.1227 9.41896C57.8288 9.61951 58.3807 10.1715 58.5812 10.8775L60.0634 16.0954C60.1398 16.3641 60.2989 16.602 60.518 16.7751L64.7737 20.1344C65.3512 20.5902 65.6507 21.313 65.565 22.0436L64.9334 27.4286C64.9008 27.7057 64.9565 27.9859 65.0922 28.2296L67.7324 32.9691C68.0894 33.61 68.0894 34.3898 67.7324 35.0305Z" fill="#7265FB"/>
<path d="M35.7523 20.8542L39.023 27.8926C39.414 28.7341 40.2092 29.3165 41.1294 29.4355L48.9707 30.4494C50.6081 30.6611 51.243 32.6962 50.0163 33.8013L44.2863 38.9643C43.5778 39.6026 43.2577 40.5667 43.4438 41.5019L44.9945 49.2967C45.3189 50.9272 43.5696 52.179 42.131 51.3459L35.3555 47.4222C34.517 46.9366 33.4827 46.9366 32.6442 47.4222L25.8687 51.3459C24.4301 52.179 22.6808 50.9271 23.0052 49.2967L24.5559 41.5019C24.742 40.5667 24.4219 39.6026 23.7135 38.9643L17.9834 33.8013C16.7567 32.6961 17.3916 30.6611 19.029 30.4494L26.8703 29.4355C27.7905 29.3165 28.5857 28.7341 28.9767 27.8926L32.2475 20.8542C32.9402 19.3637 35.0595 19.3637 35.7523 20.8542Z" fill="#004281"/>
<path d="M67.7322 32.9692L65.092 28.2297C64.9563 27.986 64.9006 27.7057 64.9332 27.4287L65.5648 22.0437C65.6505 21.3131 65.351 20.5903 64.7735 20.1345L60.5178 16.7751C60.2985 16.6021 60.1394 16.3642 60.0632 16.0955L58.581 10.8776C58.3805 10.1714 57.8285 9.61958 57.1225 9.41903L52.7941 8.18945C53.1471 8.679 53.4182 9.2323 53.5879 9.83009L54.4294 12.7926C54.6104 13.4297 54.9876 13.9935 55.5075 14.4038L57.9193 16.3076C59.3552 17.441 60.1001 19.2384 59.8871 21.0553L59.529 24.1081C59.452 24.765 59.5837 25.4294 59.9055 26.0073L61.4058 28.7006C62.2934 30.2941 62.2934 32.2333 61.4058 33.8267L59.9055 36.52C59.5837 37.0977 59.452 37.7623 59.529 38.4192L59.8871 41.472C60.1001 43.2889 59.3553 45.0862 57.9193 46.2197L55.5073 48.1235C54.9875 48.5339 54.6103 49.0977 54.4293 49.7347L53.5878 52.6972C53.0889 54.4531 51.7165 55.8256 49.9605 56.3244L46.998 57.1659C46.3609 57.347 45.7971 57.7241 45.3869 58.244L43.483 60.6558C42.3496 62.0917 40.5522 62.8366 38.7354 62.6236L35.6825 62.2655C35.0256 62.1885 34.3612 62.3203 33.7833 62.6421L31.09 64.1423C29.4965 65.0299 27.5573 65.0299 25.964 64.1423L23.2707 62.6421C22.6929 62.3203 22.0283 62.1885 21.3715 62.2655L18.427 62.6108L20.1343 64.7737C20.5901 65.3512 21.3129 65.6507 22.0435 65.565L27.4286 64.9333C27.7057 64.9008 27.9859 64.9564 28.2296 65.0922L32.9692 67.7324C33.61 68.0892 34.3897 68.0892 35.0306 67.7324L39.7701 65.0922C40.0138 64.9564 40.294 64.9008 40.5711 64.9333L45.9561 65.565C46.6867 65.6507 47.4095 65.3512 47.8653 64.7737L51.2246 60.518C51.3977 60.2987 51.6356 60.1396 51.9043 60.0634L57.1222 58.5812C57.8284 58.3806 58.3802 57.8287 58.5807 57.1226L60.0631 51.9047C60.1394 51.636 60.2985 51.3982 60.5177 51.2251L64.7734 47.8657C65.3509 47.4099 65.6503 46.6872 65.5647 45.9566L64.933 40.5714C64.9005 40.2944 64.9561 40.0141 65.0919 39.7704L67.732 35.0309C68.0892 34.3898 68.0892 33.6099 67.7322 32.9692Z" fill="#020015" fill-opacity="0.1"/>
<path d="M35.7523 18.118L39.023 25.1564C39.414 25.9979 40.2092 26.5803 41.1294 26.6993L48.9707 27.7132C50.6081 27.9249 51.243 29.96 50.0163 31.0651L44.2863 36.2281C43.5778 36.8664 43.2577 37.8304 43.4438 38.7657L44.9945 46.5605C45.3189 48.1909 43.5696 49.4428 42.131 48.6096L35.3555 44.686C34.517 44.2004 33.4827 44.2004 32.6442 44.686L25.8687 48.6096C24.4301 49.4428 22.6808 48.1909 23.0052 46.5605L24.5559 38.7657C24.742 37.8304 24.4219 36.8664 23.7135 36.2281L17.9834 31.0651C16.7567 29.9598 17.3916 27.9249 19.029 27.7132L26.8703 26.6993C27.7905 26.5803 28.5857 25.9979 28.9767 25.1564L32.2475 18.118C32.9402 16.6273 35.0595 16.6273 35.7523 18.118Z" fill="#FFDF8E"/>
<path d="M48.9709 27.7133L43.4469 26.999C43.7274 28.0797 43.46 29.3053 42.4892 30.1799L39.3505 33.008C38.3091 33.9463 37.8387 35.3636 38.1121 36.7383L38.9733 41.0668C39.4004 43.2136 37.6592 44.9644 35.7297 44.9027L42.1312 48.6097C43.5698 49.4429 45.3191 48.191 44.9947 46.5606L43.444 38.7658C43.2579 37.8305 43.578 36.8665 44.2864 36.2282L50.0165 31.0652C51.2432 29.9599 50.6083 27.925 48.9709 27.7133Z" fill="#FD8C02" fill-opacity="0.41"/>
<path d="M34 11.6211C33.4498 11.6211 33.0039 11.1752 33.0039 10.625V6.375C33.0039 5.82489 33.4498 5.37891 34 5.37891C34.5502 5.37891 34.9961 5.82489 34.9961 6.375V10.625C34.9961 11.1752 34.5502 11.6211 34 11.6211ZM25.436 13.3245C25.9443 13.114 26.1857 12.5314 25.9751 12.0231L24.3485 8.09665C24.138 7.58851 23.5554 7.34692 23.0471 7.55756C22.5388 7.7682 22.2974 8.35085 22.508 8.85899L24.1344 12.7855C24.2933 13.1692 24.6641 13.4006 25.0551 13.4006C25.182 13.4006 25.3113 13.3762 25.436 13.3245ZM18.1758 18.1758C18.5648 17.7866 18.5648 17.1561 18.1758 16.767L15.1706 13.7619C14.7815 13.373 14.1509 13.373 13.7619 13.7619C13.3729 14.151 13.3729 14.7816 13.7619 15.1706L16.767 18.1758C16.9616 18.3702 17.2166 18.4674 17.4715 18.4674C17.7264 18.4674 17.9812 18.3701 18.1758 18.1758ZM13.3245 25.436C13.5352 24.9277 13.2939 24.3451 12.7855 24.1346L8.85899 22.5083C8.35072 22.2972 7.76807 22.5389 7.55756 23.0474C7.34692 23.5556 7.58824 24.1383 8.09665 24.3488L12.0231 25.9751C12.1477 26.0269 12.2769 26.0512 12.4039 26.0512C12.7949 26.051 13.1657 25.8195 13.3245 25.436ZM11.6211 34C11.6211 33.4498 11.1752 33.0039 10.625 33.0039H6.375C5.82476 33.0039 5.37891 33.4498 5.37891 34C5.37891 34.5502 5.82476 34.9961 6.375 34.9961H10.625C11.1752 34.9961 11.6211 34.5502 11.6211 34ZM8.85899 45.4919L12.7855 43.8654C13.2937 43.6549 13.5352 43.0723 13.3245 42.564C13.114 42.0557 12.5315 41.8144 12.0231 42.0249L8.09665 43.6515C7.58838 43.862 7.34692 44.4446 7.55756 44.9529C7.71641 45.3366 8.08722 45.5681 8.47822 45.5681C8.60519 45.5681 8.73441 45.5435 8.85899 45.4919ZM15.1706 54.2382L18.1758 51.2331C18.5648 50.8439 18.5648 50.2134 18.1758 49.8243C17.7866 49.4355 17.1561 49.4355 16.767 49.8243L13.7619 52.8295C13.3729 53.2186 13.3729 53.8492 13.7619 54.2382C13.9565 54.4327 14.2115 54.5299 14.4663 54.5299C14.7212 54.5299 14.9761 54.4327 15.1706 54.2382ZM24.3486 59.9034L25.9749 55.9769C26.1856 55.4686 25.9443 54.886 25.4359 54.6755C24.9273 54.4643 24.3449 54.7061 24.1344 55.2145L22.5081 59.141C22.2975 59.6493 22.5388 60.2319 23.0472 60.4424C23.1718 60.4942 23.301 60.5185 23.428 60.5185C23.819 60.5185 24.1898 60.287 24.3486 59.9034ZM34.9961 61.625V57.375C34.9961 56.8248 34.5502 56.3789 34 56.3789C33.4498 56.3789 33.0039 56.8248 33.0039 57.375V61.625C33.0039 62.1752 33.4498 62.6211 34 62.6211C34.5502 62.6211 34.9961 62.1752 34.9961 61.625ZM44.9529 60.4424C45.4612 60.2319 45.7026 59.6493 45.492 59.141L43.8656 55.2145C43.6551 54.7063 43.0724 54.4648 42.5641 54.6755C42.0559 54.886 41.8144 55.4686 42.0251 55.9769L43.6515 59.9034C43.8103 60.287 44.1811 60.5185 44.5721 60.5185C44.6991 60.5185 44.8282 60.494 44.9529 60.4424ZM54.2382 54.2382C54.6272 53.8491 54.6272 53.2185 54.2382 52.8295L51.2331 49.8243C50.8439 49.4355 50.2134 49.4355 49.8243 49.8243C49.4353 50.2135 49.4353 50.8441 49.8243 51.2331L52.8295 54.2382C53.0241 54.4327 53.2791 54.5299 53.5339 54.5299C53.7888 54.5299 54.0437 54.4327 54.2382 54.2382ZM60.4424 44.9529C60.6531 44.4446 60.4118 43.862 59.9034 43.6515L55.9769 42.0251C55.4689 41.8142 54.886 42.0557 54.6755 42.5641C54.4648 43.0724 54.7061 43.6551 55.2145 43.8656L59.141 45.492C59.2656 45.5438 59.3947 45.5681 59.5218 45.5681C59.9126 45.5681 60.2835 45.3363 60.4424 44.9529ZM62.6211 34C62.6211 33.4498 62.1752 33.0039 61.625 33.0039H57.375C56.8248 33.0039 56.3789 33.4498 56.3789 34C56.3789 34.5502 56.8248 34.9961 57.375 34.9961H61.625C62.1752 34.9961 62.6211 34.5502 62.6211 34ZM55.9769 25.9749L59.9034 24.3485C60.4116 24.138 60.6531 23.5554 60.4424 23.0471C60.2319 22.5388 59.6493 22.2975 59.141 22.508L55.2145 24.1344C54.7063 24.3449 54.4648 24.9276 54.6755 25.4359C54.8343 25.8195 55.2051 26.051 55.5961 26.051C55.7231 26.051 55.8522 26.0266 55.9769 25.9749ZM51.2331 18.1758L54.2382 15.1706C54.6272 14.7815 54.6272 14.1509 54.2382 13.7619C53.8491 13.373 53.2185 13.373 52.8295 13.7619L49.8243 16.767C49.4353 17.1562 49.4353 17.7868 49.8243 18.1758C50.0189 18.3702 50.2739 18.4674 50.5288 18.4674C50.7836 18.4674 51.0385 18.3701 51.2331 18.1758ZM43.8654 12.7856L45.4919 8.85913C45.7025 8.35085 45.4612 7.7682 44.9528 7.5577C44.445 7.34745 43.8619 7.58851 43.6514 8.09678L42.0249 12.0233C41.8143 12.5315 42.0556 13.1142 42.564 13.3247C42.6886 13.3765 42.8177 13.4008 42.9448 13.4008C43.3358 13.4006 43.7066 13.169 43.8654 12.7856Z" fill="#004281"/>
<path d="M54.2381 54.2375C54.6271 53.8483 54.6271 53.2177 54.2381 52.8287L53.7024 52.293L53.5877 52.6965C53.427 53.2621 53.1758 53.7879 52.8501 54.2577C53.0419 54.4387 53.2878 54.5293 53.5337 54.5293C53.7886 54.5291 54.0435 54.4319 54.2381 54.2375Z" fill="#00366D"/>
<path d="M60.4425 44.9522C60.6531 44.444 60.4118 43.8613 59.9034 43.6508L59.7091 43.5703C59.5201 44.213 59.2095 44.8166 58.7915 45.3464L59.1409 45.4912C59.2655 45.543 59.3946 45.5673 59.5217 45.5673C59.9127 45.5674 60.2835 45.3357 60.4425 44.9522Z" fill="#00366D"/>
<path d="M59.7232 22.4521L59.529 24.1075C59.5132 24.2422 59.5062 24.3773 59.5078 24.5118L59.9033 24.3479C60.4116 24.1374 60.653 23.5548 60.4424 23.0465C60.3112 22.7299 60.0353 22.5168 59.7232 22.4521Z" fill="#00366D"/>
<path d="M61.772 33.0146C61.674 33.2926 61.5519 33.5642 61.4058 33.8265L60.7544 34.9959H61.625C62.1752 34.9959 62.6211 34.5501 62.6211 33.9999C62.6211 33.4998 62.2525 33.0858 61.772 33.0146Z" fill="#00366D"/>
<path d="M34.7342 62.2979C34.4253 62.3559 34.1252 62.4601 33.8445 62.6086C33.8952 62.6166 33.9471 62.6207 34.0001 62.6207C34.2906 62.6207 34.5521 62.4963 34.7342 62.2979Z" fill="#00366D"/>
<path d="M44.5721 60.5179C44.6991 60.5179 44.8283 60.4933 44.9529 60.4418C45.4611 60.2313 45.7026 59.6486 45.492 59.1403L45.2121 58.4648L43.8423 60.2002C44.0306 60.4027 44.2964 60.5179 44.5721 60.5179Z" fill="#00366D"/>
<path d="M27.4142 31.9102C26.9209 31.9102 26.4926 31.5439 26.4275 31.0416C26.3571 30.4962 26.7421 29.9966 27.2879 29.9261C29.3265 29.6628 31.0611 28.3923 31.9278 26.5277C32.1594 26.0289 32.7524 25.8123 33.2509 26.0443C33.7497 26.276 33.9662 26.8685 33.7343 27.3674C32.578 29.8551 30.2635 31.5503 27.5432 31.902C27.4998 31.9074 27.4567 31.9102 27.4142 31.9102Z" fill="#FEE45A"/>
</g>
<defs>
<clipPath id="clip0_1_15318">
<rect width="68" height="68" fill="white"/>
</clipPath>
</defs>
</svg>
