<svg width="25" height="24" viewBox="0 0 25 24" fill="none" xmlns="http://www.w3.org/2000/svg">
<path d="M12.4919 16.5V18.6" stroke="#524E7D" stroke-width="1.5" stroke-linecap="round" stroke-linejoin="round"/>
<path d="M7.49194 22H17.4919V21C17.4919 19.9 16.5919 19 15.4919 19H9.49194C8.39194 19 7.49194 19.9 7.49194 21V22V22Z" stroke="#524E7D" stroke-width="1.5" stroke-miterlimit="10"/>
<path d="M6.49194 22H18.4919" stroke="#524E7D" stroke-width="1.5" stroke-linecap="round" stroke-linejoin="round"/>
<path d="M12.3416 16C8.47155 16 5.34155 12.87 5.34155 9V6C5.34155 3.79 7.13155 2 9.34155 2H15.3416C17.5516 2 19.3416 3.79 19.3416 6V9C19.3416 12.87 16.2116 16 12.3416 16Z" stroke="#524E7D" stroke-width="1.5" stroke-linecap="round" stroke-linejoin="round"/>
<path d="M5.81062 11.6496C5.06062 11.4096 4.40062 10.9696 3.88062 10.4496C2.98062 9.44961 2.38062 8.24961 2.38062 6.84961C2.38062 5.44961 3.48062 4.34961 4.88062 4.34961H5.53062C5.33062 4.80961 5.23062 5.31961 5.23062 5.84961V8.84961C5.23062 9.84961 5.44062 10.7896 5.81062 11.6496Z" stroke="#524E7D" stroke-width="1.5" stroke-linecap="round" stroke-linejoin="round"/>
<path d="M18.8708 11.6496C19.6208 11.4096 20.2808 10.9696 20.8008 10.4496C21.7008 9.44961 22.3008 8.24961 22.3008 6.84961C22.3008 5.44961 21.2008 4.34961 19.8008 4.34961H19.1508C19.3508 4.80961 19.4508 5.31961 19.4508 5.84961V8.84961C19.4508 9.84961 19.2408 10.7896 18.8708 11.6496Z" stroke="#524E7D" stroke-width="1.5" stroke-linecap="round" stroke-linejoin="round"/>
</svg>
