<svg width="25" height="24" viewBox="0 0 25 24" fill="none" xmlns="http://www.w3.org/2000/svg">
<path d="M22.3416 12V17C22.3416 20 20.3416 22 17.3416 22H7.34155C4.34155 22 2.34155 20 2.34155 17V12C2.34155 9.28 3.98155 7.38 6.53155 7.06C6.79155 7.02 7.06155 7 7.34155 7H17.3416C17.6016 7 17.8516 7.00999 18.0916 7.04999C20.6716 7.34999 22.3416 9.26 22.3416 12Z" stroke="#524E7D" stroke-width="1.5" stroke-linecap="round" stroke-linejoin="round"/>
<path d="M18.093 7.05C17.853 7.01 17.603 7.00001 17.343 7.00001H7.34296C7.06296 7.00001 6.79296 7.02001 6.53296 7.06001C6.67296 6.78001 6.87296 6.52001 7.11296 6.28001L10.363 3.02C11.733 1.66 13.953 1.66 15.323 3.02L17.073 4.79002C17.713 5.42002 18.053 6.22 18.093 7.05Z" stroke="#524E7D" stroke-width="1.5" stroke-linecap="round" stroke-linejoin="round"/>
<path d="M22.3416 12.5H19.3416C18.2416 12.5 17.3416 13.4 17.3416 14.5C17.3416 15.6 18.2416 16.5 19.3416 16.5H22.3416" stroke="#524E7D" stroke-width="1.5" stroke-linecap="round" stroke-linejoin="round"/>
</svg>
