<svg width="20" height="26" viewBox="0 0 20 26" fill="none" xmlns="http://www.w3.org/2000/svg">
<path d="M1.2792 5.57265C1.98569 5.57265 2.5584 4.99368 2.5584 4.27949C2.5584 3.5653 1.98569 2.98633 1.2792 2.98633C0.572718 2.98633 0 3.5653 0 4.27949C0 4.99368 0.572718 5.57265 1.2792 5.57265Z" fill="#FFD15B"/>
<path d="M17.8117 5.57265C18.5182 5.57265 19.0909 4.99368 19.0909 4.27949C19.0909 3.5653 18.5182 2.98633 17.8117 2.98633C17.1052 2.98633 16.5325 3.5653 16.5325 4.27949C16.5325 4.99368 17.1052 5.57265 17.8117 5.57265Z" fill="#FFD15B"/>
<path d="M1.27917 17.0981C1.27917 21.7132 4.98009 25.4545 9.54543 25.4545C14.1108 25.4545 17.7657 21.7132 17.7657 17.0981V8.97173C17.7657 8.73746 17.5778 8.5475 17.346 8.5475C16.9831 8.5475 16.6818 8.56866 16.3618 8.69229C15.2762 9.1117 14.5052 10.1745 14.5052 11.4194L14.4591 5.09997C14.4591 4.29234 13.9385 3.15314 13.1851 2.99729C13.0775 2.97501 12.966 2.96333 12.8519 2.96333C11.9388 2.96333 11.1986 3.7116 11.1986 4.63462L11.1526 1.67124C11.1526 0.863611 10.6319 0.189757 9.87854 0.0339052C9.77098 0.0116773 9.65957 0 9.54543 0C8.63237 0 7.89218 0.748271 7.89218 1.67129V4.63467C7.89218 4.23083 7.70447 3.90699 7.46863 3.61813C7.23279 3.32922 6.94877 3.07529 6.57214 2.99734C6.46453 2.97506 6.35307 2.96338 6.23893 2.96338C5.32587 2.96338 4.58568 3.71165 4.58568 4.63467V11.4194C4.58568 10.7607 4.3698 10.6184 4.00573 10.13C3.78727 9.83693 3.51546 9.12154 3.20484 8.92912C2.7664 8.65757 2.2507 8.501 1.69882 8.501C1.46709 8.501 1.27917 8.69091 1.27917 8.92522V17.0981Z" fill="#B3DAFE"/>
<path d="M17.3921 8.50098C17.0291 8.50098 16.6821 8.56935 16.3621 8.69299C16.4054 8.75972 16.4308 8.83941 16.4308 8.9252V17.0981C16.4308 21.4781 13.0972 25.0706 8.85498 25.4253C9.08271 25.4443 9.31288 25.4545 9.54547 25.4545C14.1108 25.4545 17.8117 21.7132 17.8117 17.0981V8.92515C17.8117 8.69089 17.6239 8.50098 17.3921 8.50098Z" fill="#67B2F1"/>
<path d="M13.4531 18.9572C13.4531 19.5553 13.3216 20.1224 13.0862 20.6306C13.0277 20.7569 12.9121 20.8284 12.8411 20.947C12.7809 21.0477 12.767 21.1968 12.6983 21.2913C12.0613 22.1691 11.0742 22.7711 9.94502 22.8871C9.81365 22.9006 9.68036 22.8051 9.54549 22.8051C9.4204 22.8051 9.29673 22.9015 9.17463 22.8899C8.03673 22.7816 7.04079 22.1801 6.39817 21.299C6.33231 21.2087 6.32086 21.0643 6.26265 20.9684C6.18833 20.8458 6.06972 20.7701 6.00872 20.6392C5.77081 20.1289 5.63782 19.5587 5.63782 18.9572C5.63782 18.3556 5.77081 17.7854 6.00872 17.2751C6.06157 17.1618 6.17024 17.1026 6.23316 16.9954C6.29974 16.882 6.32112 16.721 6.39823 16.6153C7.04084 15.7342 8.03678 15.1327 9.17469 15.0244C9.29673 15.0128 9.42045 15.1093 9.54554 15.1093C9.67691 15.1093 9.80671 15.0134 9.93474 15.0262C11.0683 15.1395 12.0595 15.7425 12.6984 16.623C12.7721 16.7245 12.7904 16.8811 12.8545 16.9897C12.9203 17.1013 13.0314 17.1654 13.0863 17.2838C13.3216 17.7918 13.4531 18.359 13.4531 18.9572Z" fill="#E9F6FE"/>
<path d="M13.8146 13.3772C14.196 13.3772 14.5051 13.0646 14.5051 12.6791V11.4181V11.4183V4.6337C14.5051 3.80446 13.9076 3.11667 13.1241 2.98535V12.6792C13.1241 13.0647 13.4333 13.3772 13.8146 13.3772Z" fill="#67B2F1"/>
<path d="M3.8952 13.3776C4.27655 13.3776 4.5857 13.065 4.5857 12.6795V11.4188C4.5857 10.3649 4.03296 9.44169 3.20471 8.92871V12.6795C3.20471 13.0651 3.51386 13.3776 3.8952 13.3776Z" fill="#67B2F1"/>
<path d="M10.5082 13.3776C10.8896 13.3776 11.1987 13.0651 11.1987 12.6796V4.63419V1.67081C11.1987 0.841565 10.6012 0.15378 9.81775 0.0224609V12.6796C9.81775 13.0652 10.1269 13.3776 10.5082 13.3776Z" fill="#67B2F1"/>
<path d="M7.20172 13.3772C7.58307 13.3772 7.89222 13.0646 7.89222 12.6791V4.6337C7.89222 3.80446 7.29469 3.11667 6.51123 2.98535V12.6792C6.51123 13.0647 6.82038 13.3772 7.20172 13.3772Z" fill="#67B2F1"/>
<path d="M13.0855 20.6312L10.2988 18.9581L13.0855 17.285C12.9773 17.0514 12.8472 16.8303 12.6978 16.6243L9.93463 18.2832V15.0274C9.80661 15.0146 9.67681 15.0078 9.54544 15.0078C9.42035 15.0078 9.29678 15.0144 9.17468 15.026V18.2833L6.39863 16.6166C6.24866 16.8222 6.1181 17.043 6.00933 17.2764L8.81051 18.9582L6.00928 20.6399C6.11805 20.8733 6.24861 21.0941 6.39858 21.2997L9.17463 19.633V22.8903C9.29673 22.9019 9.4203 22.9085 9.54539 22.9085C9.67676 22.9085 9.80651 22.9016 9.93458 22.8888V19.633L12.6977 21.2919C12.8472 21.086 12.9772 20.8649 13.0855 20.6312Z" fill="#FFE177"/>
</svg>
