<svg width="20" height="28" viewBox="0 0 20 28" fill="none" xmlns="http://www.w3.org/2000/svg">
<path d="M1.2792 5.57265C1.98569 5.57265 2.5584 4.99368 2.5584 4.27949C2.5584 3.5653 1.98569 2.98633 1.2792 2.98633C0.572718 2.98633 0 3.5653 0 4.27949C0 4.99368 0.572718 5.57265 1.2792 5.57265Z" fill="#FFD15B"/>
<path d="M17.8117 5.57265C18.5182 5.57265 19.0909 4.99368 19.0909 4.27949C19.0909 3.5653 18.5182 2.98633 17.8117 2.98633C17.1052 2.98633 16.5325 3.5653 16.5325 4.27949C16.5325 4.99368 17.1052 5.57265 17.8117 5.57265Z" fill="#FFD15B"/>
<path d="M1.2793 17.0981C1.2793 21.7132 4.98021 25.4545 9.54555 25.4545C14.1109 25.4545 17.7658 21.7132 17.7658 17.0981V8.97173C17.7658 8.73746 17.5779 8.5475 17.3462 8.5475C16.9832 8.5475 16.6819 8.56866 16.3619 8.69229C15.2763 9.1117 14.5053 10.1745 14.5053 11.4194L14.4593 5.09997C14.4593 4.29234 13.9386 3.15314 13.1852 2.99729C13.0776 2.97501 12.9661 2.96333 12.852 2.96333C11.9389 2.96333 11.1988 3.7116 11.1988 4.63462L11.1527 1.67124C11.1527 0.863611 10.632 0.189757 9.87866 0.0339052C9.7711 0.0116773 9.6597 0 9.54555 0C8.63249 0 7.8923 0.748271 7.8923 1.67129V4.63467C7.8923 4.23083 7.70459 3.90699 7.46875 3.61813C7.23291 3.32922 6.9489 3.07529 6.57226 2.99734C6.46465 2.97506 6.35319 2.96338 6.23905 2.96338C5.32599 2.96338 4.5858 3.71165 4.5858 4.63467V11.4194C4.5858 10.7607 4.36992 10.6184 4.00585 10.13C3.78739 9.83693 3.51558 9.12154 3.20497 8.92912C2.76652 8.65757 2.25082 8.501 1.69894 8.501C1.46721 8.501 1.2793 8.69091 1.2793 8.92522V17.0981Z" fill="#B3DAFE"/>
<path d="M17.3921 8.50098C17.0291 8.50098 16.6821 8.56935 16.3621 8.69299C16.4054 8.75972 16.4308 8.83941 16.4308 8.9252V17.0981C16.4308 21.4781 13.0972 25.0706 8.85498 25.4253C9.08271 25.4443 9.31288 25.4545 9.54547 25.4545C14.1108 25.4545 17.8117 21.7132 17.8117 17.0981V8.92515C17.8117 8.69089 17.6239 8.50098 17.3921 8.50098Z" fill="#67B2F1"/>
<path d="M13.4532 18.9572C13.4532 19.5553 13.3217 20.1224 13.0863 20.6306C13.0278 20.7569 12.9122 20.8284 12.8413 20.947C12.781 21.0477 12.7671 21.1968 12.6985 21.2913C12.0615 22.1691 11.0743 22.7711 9.94515 22.8871C9.81377 22.9006 9.68048 22.8051 9.54561 22.8051C9.42053 22.8051 9.29686 22.9015 9.17476 22.8899C8.03685 22.7816 7.04091 22.1801 6.3983 21.299C6.33243 21.2087 6.32098 21.0643 6.26277 20.9684C6.18845 20.8458 6.06985 20.7701 6.00885 20.6392C5.77093 20.1289 5.63794 19.5587 5.63794 18.9572C5.63794 18.3556 5.77093 17.7854 6.00885 17.2751C6.06169 17.1618 6.17036 17.1026 6.23329 16.9954C6.29986 16.882 6.32124 16.721 6.39835 16.6153C7.04096 15.7342 8.03691 15.1327 9.17481 15.0244C9.29686 15.0128 9.42058 15.1093 9.54566 15.1093C9.67703 15.1093 9.80683 15.0134 9.93486 15.0262C11.0684 15.1395 12.0596 15.7425 12.6985 16.623C12.7722 16.7245 12.7906 16.8811 12.8546 16.9897C12.9204 17.1013 13.0316 17.1654 13.0864 17.2838C13.3217 17.7918 13.4532 18.359 13.4532 18.9572Z" fill="#E9F6FE"/>
<path d="M13.8145 13.3772C14.1959 13.3772 14.505 13.0646 14.505 12.6791V11.4181V11.4183V4.6337C14.505 3.80446 13.9075 3.11667 13.124 2.98535V12.6792C13.124 13.0647 13.4332 13.3772 13.8145 13.3772Z" fill="#67B2F1"/>
<path d="M3.89508 13.3776C4.27643 13.3776 4.58558 13.065 4.58558 12.6795V11.4188C4.58558 10.3649 4.03284 9.44169 3.20459 8.92871V12.6795C3.20459 13.0651 3.51374 13.3776 3.89508 13.3776Z" fill="#67B2F1"/>
<path d="M10.5081 13.3776C10.8895 13.3776 11.1986 13.0651 11.1986 12.6796V4.63419V1.67081C11.1986 0.841565 10.6011 0.15378 9.81763 0.0224609V12.6796C9.81763 13.0652 10.1268 13.3776 10.5081 13.3776Z" fill="#67B2F1"/>
<path d="M7.20172 13.3772C7.58307 13.3772 7.89222 13.0646 7.89222 12.6791V4.6337C7.89222 3.80446 7.29469 3.11667 6.51123 2.98535V12.6792C6.51123 13.0647 6.82038 13.3772 7.20172 13.3772Z" fill="#67B2F1"/>
<path d="M13.0855 20.6312L10.2988 18.9581L13.0855 17.285C12.9773 17.0514 12.8472 16.8303 12.6978 16.6243L9.93463 18.2832V15.0274C9.80661 15.0146 9.67681 15.0078 9.54544 15.0078C9.42035 15.0078 9.29678 15.0144 9.17468 15.026V18.2833L6.39863 16.6166C6.24866 16.8222 6.1181 17.043 6.00933 17.2764L8.81051 18.9582L6.00928 20.6399C6.11805 20.8733 6.24861 21.0941 6.39858 21.2997L9.17463 19.633V22.8903C9.29673 22.9019 9.4203 22.9085 9.54539 22.9085C9.67676 22.9085 9.80651 22.9016 9.93458 22.8888V19.633L12.6977 21.2919C12.8472 21.086 12.9772 20.8649 13.0855 20.6312Z" fill="#FFE177"/>
<g filter="url(#filter0_f_1_973)">
<ellipse cx="9.27273" cy="25.5401" rx="8.27273" ry="1.59091" fill="url(#paint0_linear_1_973)"/>
</g>
<defs>
<filter id="filter0_f_1_973" x="0" y="22.9492" width="18.5454" height="5.18164" filterUnits="userSpaceOnUse" color-interpolation-filters="sRGB">
<feFlood flood-opacity="0" result="BackgroundImageFix"/>
<feBlend mode="normal" in="SourceGraphic" in2="BackgroundImageFix" result="shape"/>
<feGaussianBlur stdDeviation="0.5" result="effect1_foregroundBlur_1_973"/>
</filter>
<linearGradient id="paint0_linear_1_973" x1="9.27273" y1="23.9492" x2="9.27273" y2="27.131" gradientUnits="userSpaceOnUse">
<stop stop-color="white" stop-opacity="0"/>
<stop offset="1" stop-color="#6A6DA2"/>
</linearGradient>
</defs>
</svg>
