<svg width="40" height="41" viewBox="0 0 40 41" fill="none" xmlns="http://www.w3.org/2000/svg">
<path d="M18.828 0.533258C14.2938 0.793493 10.0444 2.56131 6.66242 5.59537C6.38843 5.84115 6.90132 6.87654 6.63906 7.13888C6.34632 7.43162 5.2825 6.9506 5.01031 7.25787C2.02836 10.6242 0.291245 14.8362 0.0334327 19.3278C0.0111671 19.7165 0.781167 20.1072 0.781167 20.4997C0.781167 20.8922 0.0111671 21.283 0.0334327 21.6717C0.292417 26.1846 2.04492 30.4154 5.05289 33.7896C5.31195 34.0801 6.10671 34.445 6.10671 34.445C6.10671 34.445 6.41968 35.1879 6.71039 35.4469C10.0846 38.4547 14.3152 40.2071 18.828 40.4661C19.2166 40.4884 19.9999 40.0107 19.9999 40.0107L20.7812 21.2529L20.0134 0.856539C20.0134 0.856539 19.2166 0.510993 18.828 0.533258Z" fill="#FDCB02"/>
<path d="M20 1.26512V35.6361C20 35.6361 20.7832 40.4887 21.1719 40.4664C25.701 40.2064 29.946 38.4422 33.3262 35.4143C33.6041 35.1654 33.0949 34.1267 33.3609 33.8608C33.6501 33.5716 34.7105 34.0564 34.9796 33.7531C37.9676 30.3849 39.7083 26.1685 39.9664 21.6719C39.9887 21.2832 38.4374 20.8924 38.4374 20.4999C38.4374 20.1074 39.9887 19.7166 39.9664 19.3279C39.7074 14.815 37.9549 10.5843 34.947 7.21004C34.688 6.91949 33.7694 6.71082 33.7694 6.71082C33.7694 6.71082 33.5802 5.81176 33.2895 5.55262C29.9152 2.54496 25.6845 0.793476 21.1718 0.534569C20.8249 0.514648 20 1.26512 20 1.26512Z" fill="#FDAE02"/>
<path d="M11.4006 10.2436L6.66324 5.59668C6.38917 5.84246 6.12027 6.09582 5.85792 6.35816C5.56511 6.65098 5.28378 6.95207 5.0116 7.25941L9.74339 11.9008L11.4006 10.2436Z" fill="#FDAE02"/>
<path d="M18.8281 33.833V40.4648C19.2169 40.4871 19.6074 40.4997 20 40.4997H20.0001L20.7813 37.8643L20.0001 33.833H18.8281Z" fill="#FDAE02"/>
<path d="M21.1718 33.833H20V40.4996C20.3925 40.4996 20.783 40.4871 21.1718 40.4647V33.833Z" fill="#FD8C02"/>
<path d="M18.8281 0.534922V7.16672H20.0001L20.7813 3.38687L20.0001 0.5C20.0001 0.5 19.2169 0.512578 18.8281 0.534922Z" fill="#FDAE02"/>
<path d="M21.1718 0.534922C20.783 0.512578 20.3925 0.5 20 0.5V7.16672H21.1718V0.534922Z" fill="#FD8C02"/>
<path d="M28.5995 30.7569L33.3256 35.4138C33.6035 35.1648 33.8763 34.9082 34.1422 34.6423C34.4314 34.353 34.7095 34.0557 34.9786 33.7523L30.2568 29.0996L28.5995 30.7569Z" fill="#FD8C02"/>
<path d="M33.3334 21.6719H39.9651C39.9874 21.2831 40 20.8926 40 20.5C40 20.1074 39.9874 19.7169 39.9651 19.3281H33.3334V21.6719Z" fill="#FD8C02"/>
<path d="M6.66672 19.3281H0.0349219C0.0125781 19.7169 0 20.1074 0 20.5C0 20.8926 0.0125781 21.2831 0.0349219 21.6719H6.66672V19.3281Z" fill="#FDAE02"/>
<path d="M30.2567 11.9004L34.946 7.21105C34.6869 6.92043 34.4197 6.63535 34.142 6.3577C33.8644 6.08012 33.5794 5.81285 33.2887 5.55371L28.5994 10.243L30.2567 11.9004Z" fill="#FD8C02"/>
<path d="M9.74333 29.0996L5.05396 33.789C5.31302 34.0796 5.58028 34.3647 5.85794 34.6423C6.13552 34.9199 6.4206 35.1872 6.7113 35.4463L11.4007 30.757L9.74333 29.0996Z" fill="#FDAE02"/>
<path d="M20 5.99512C12.0018 5.99512 5.49487 12.5021 5.49487 20.5003C5.49487 28.4985 12.0018 35.0055 20 35.0055H20.0001L20.7814 21.1797L20.0001 5.99512H20Z" fill="#FFDF8E"/>
<path d="M34.5053 20.5004C34.5053 12.5021 27.9982 5.9952 20.0001 5.99512V35.0055C27.9982 35.0055 34.5053 28.4986 34.5053 20.5004Z" fill="#FFD664"/>
<path d="M18.8281 12.1162V15.4496H20L20.7812 13.8892L20 12.1162H18.8281Z" fill="#FDAE02"/>
<path d="M20 12.1162H21.1719V15.4496H20V12.1162Z" fill="#FD8C02"/>
<path d="M17.0649 28.8838L17.4367 17.9479C16.1472 16.6489 14.1289 16.3598 12.5022 17.3148C10.6586 18.3968 9.96809 20.7397 10.93 22.6486L14.0719 28.8838H17.0649Z" fill="#FDAE02"/>
<path d="M27.498 17.3148C25.8711 16.3598 23.8529 16.6489 22.5635 17.9478L23.0201 28.8837H25.9281L29.0701 22.6485C30.032 20.7396 29.3414 18.3967 27.498 17.3148Z" fill="#FD8C02"/>
<path d="M17.0648 28.8837H20.0251L20.7811 21.7513L19.9999 14.2773C18.6165 14.2773 17.3132 14.8852 16.4242 15.945C15.5351 17.0048 15.1632 18.3939 15.4047 19.7622L17.0648 28.8837Z" fill="#FDCB02"/>
<path d="M23.0201 28.8837L24.5963 19.7561C24.8367 18.3938 24.4648 17.0047 23.5756 15.9449C22.6866 14.8852 21.3834 14.2773 20 14.2773V28.8838H23.0201V28.8837Z" fill="#FDAE02"/>
</svg>
