<svg width="20" height="20" viewBox="0 0 20 20" fill="none" xmlns="http://www.w3.org/2000/svg">
<path d="M10.1253 13.75V15.5" stroke="#fff" stroke-width="1.5" stroke-linecap="round" stroke-linejoin="round"/>
<path d="M5.95868 18.3333H14.292V17.5C14.292 16.5833 13.542 15.8333 12.6253 15.8333H7.62535C6.70868 15.8333 5.95868 16.5833 5.95868 17.5V18.3333V18.3333Z" stroke="#fff" stroke-width="1.5" stroke-miterlimit="10"/>
<path d="M5.12531 18.3333H15.1253" stroke="#fff" stroke-width="1.5" stroke-linecap="round" stroke-linejoin="round"/>
<path d="M10 13.3334C6.77502 13.3334 4.16669 10.725 4.16669 7.50002V5.00002C4.16669 3.15835 5.65835 1.66669 7.50002 1.66669H12.5C14.3417 1.66669 15.8334 3.15835 15.8334 5.00002V7.50002C15.8334 10.725 13.225 13.3334 10 13.3334Z" stroke="#fff" stroke-width="1.5" stroke-linecap="round" stroke-linejoin="round"/>
<path d="M4.55755 9.70833C3.93255 9.50833 3.38255 9.14167 2.94922 8.70833C2.19922 7.875 1.69922 6.875 1.69922 5.70833C1.69922 4.54167 2.61589 3.625 3.78255 3.625H4.32422C4.15755 4.00833 4.07422 4.43333 4.07422 4.875V7.375C4.07422 8.20833 4.24922 8.99167 4.55755 9.70833Z" stroke="#fff" stroke-width="1.5" stroke-linecap="round" stroke-linejoin="round"/>
<path d="M15.4411 9.70833C16.0661 9.50833 16.6161 9.14167 17.0494 8.70833C17.7994 7.875 18.2994 6.875 18.2994 5.70833C18.2994 4.54167 17.3828 3.625 16.2161 3.625H15.6744C15.8411 4.00833 15.9244 4.43333 15.9244 4.875V7.375C15.9244 8.20833 15.7494 8.99167 15.4411 9.70833Z" stroke="#fff" stroke-width="1.5" stroke-linecap="round" stroke-linejoin="round"/>
</svg>
