<svg width="14" height="14" viewBox="0 0 14 14" fill="none" xmlns="http://www.w3.org/2000/svg">
<path d="M6.43322 10.9995C6.31897 10.9995 6.1476 10.9423 6.03335 10.8281C5.80485 10.5996 5.80486 10.2568 5.97623 10.0283L12.2599 3.17342C12.4884 2.94492 12.8311 2.94492 13.0596 3.1163C13.2881 3.34479 13.2881 3.68754 13.1168 3.91604L6.83309 10.771C6.71884 10.9423 6.6046 10.9995 6.43322 10.9995ZM3.97688 10.9995C3.8055 10.9995 3.63413 10.9423 3.57701 10.8281L0.892165 7.85761C0.663668 7.62912 0.720792 7.28637 0.949289 7.05787C1.17779 6.82938 1.52053 6.8865 1.74903 7.115L3.97688 9.62847L9.68931 3.23055C9.91781 3.00205 10.2606 3.00205 10.489 3.17342C10.7175 3.40192 10.7175 3.74466 10.5462 3.97316L4.37675 10.8281C4.2625 10.9423 4.14825 10.9995 3.97688 10.9995Z" fill="white"/>
</svg>
