<svg width="24" height="25" viewBox="0 0 24 25" fill="none" xmlns="http://www.w3.org/2000/svg">
<g clip-path="url(#clip0_1_9219)">
<path d="M23.379 9.25089L15.9651 8.17354L12.6495 1.45546C12.5167 1.18649 12.2584 1.05176 12 1.05176L12.001 20.3774L18.6312 23.8634C19.1628 24.1425 19.7834 23.6915 19.6819 23.0999L18.4158 15.7155L23.7803 10.4861C24.2106 10.067 23.973 9.33733 23.379 9.25089Z" fill="#FFB820"/>
<path d="M16.8589 15.2099C16.8589 15.2099 18.0024 21.8753 18.0063 21.8975C18.0024 21.897 12.0932 20.4005 12.001 20.3774C12 20.3769 5.36884 23.8634 5.36884 23.8634C4.83717 24.1425 4.21665 23.6915 4.31806 23.0999L5.58421 15.7155L0.219697 10.4861C-0.210566 10.067 0.0270202 9.33733 0.620985 9.25089L8.03492 8.17354L11.3505 1.45546C11.4833 1.18649 11.7417 1.05176 12 1.05176L15.0031 9.49765L21.7183 10.4736L16.8589 15.2099Z" fill="#FFD06A"/>
</g>
<defs>
<clipPath id="clip0_1_9219">
<rect width="24" height="24" fill="white" transform="translate(0 0.5)"/>
</clipPath>
</defs>
</svg>
